<?xml version="1.0" encoding="UTF-8" standalone="no"?>
<svg
   width="512"
   height="512"
   viewBox="0 0 512 512"
   version="1.1"
   id="svg2"
   sodipodi:docname="logo.svg"
   inkscape:version="1.4.2 (ebf0e940d0, 2025-05-08)"
   inkscape:export-filename="logo.png"
   inkscape:export-xdpi="96"
   inkscape:export-ydpi="96"
   xmlns:inkscape="http://www.inkscape.org/namespaces/inkscape"
   xmlns:sodipodi="http://sodipodi.sourceforge.net/DTD/sodipodi-0.dtd"
   xmlns:xlink="http://www.w3.org/1999/xlink"
   xmlns="http://www.w3.org/2000/svg"
   xmlns:svg="http://www.w3.org/2000/svg">
  <defs
     id="defs2">
    <linearGradient
       id="linearGradient1"
       inkscape:collect="always">
      <stop
         style="stop-color:#da5a2c;stop-opacity:1;"
         offset="0"
         id="stop1" />
      <stop
         style="stop-color:#c1998a;stop-opacity:1;"
         offset="1"
         id="stop2" />
    </linearGradient>
    <linearGradient
       inkscape:collect="always"
       xlink:href="#linearGradient1"
       id="linearGradient2"
       x1="256"
       y1="31.085421"
       x2="256"
       y2="480.91458"
       gradientUnits="userSpaceOnUse" />
  </defs>
  <sodipodi:namedview
     id="namedview2"
     pagecolor="#ffffff"
     bordercolor="#111111"
     borderopacity="1"
     inkscape:showpageshadow="0"
     inkscape:pageopacity="0"
     inkscape:pagecheckerboard="1"
     inkscape:deskcolor="#d1d1d1"
     inkscape:zoom="2.8284271"
     inkscape:cx="100.23239"
     inkscape:cy="221.85475"
     inkscape:window-width="3840"
     inkscape:window-height="2126"
     inkscape:window-x="2160"
     inkscape:window-y="2194"
     inkscape:window-maximized="1"
     inkscape:current-layer="g2" />
  <g
     fill="none"
     stroke="currentColor"
     stroke-linecap="round"
     stroke-linejoin="round"
     stroke-width="1.5"
     id="g2"
     style="fill:#865342;fill-opacity:1">
    <path
       d="m 41.08548,256 c 0,-101.30392 0,-151.9785 31.46801,-183.44651 C 104.0215,41.08548 154.67346,41.08548 256,41.08548 c 101.30392,0 151.9785,0 183.44651,31.46801 31.46801,31.46801 31.46801,82.11997 31.46801,183.44651 0,101.30392 0,151.9785 -31.46801,183.44651 C 407.9785,470.91452 357.32654,470.91452 256,470.91452 c -101.30392,0 -151.9785,0 -183.44651,-31.46801 C 41.08548,407.9785 41.08548,357.32654 41.08548,256"
       id="path1"
       style="fill:url(#linearGradient2);fill-opacity:1;stroke:#000000;stroke-width:20;stroke-opacity:1;stroke-dasharray:none" />
    <path
       d="m 208.85454,165.50968 -42.05538,29.79394 c -9.27526,6.56054 -13.91288,9.86344 -12.28406,12.66864 1.62883,2.78258 8.18938,2.78258 21.31047,2.78258 h 181.97604 m -54.65615,135.73548 42.05538,-29.79393 c 9.27526,-6.56055 13.91288,-9.86345 12.28406,-12.66865 -1.62883,-2.78258 -8.18938,-2.78258 -21.31047,-2.78258 H 154.19839"
       id="path2"
       style="fill:none;fill-opacity:1;stroke:#000000;stroke-width:33.9339;stroke-opacity:1" />
  </g>
</svg>
